<mxfile host="app.diagrams.net" modified="2022-05-23T06:18:08.460Z" agent="5.0 (Macintosh; Intel Mac OS X 10_15_7) AppleWebKit/537.36 (KHTML, like Gecko) Chrome/100.0.4896.127 Safari/537.36" etag="oUwZPShGvO_7U2PGV1dc" version="17.4.3" type="github">
  <diagram id="V66LFyJMfqvD_itr0hJN" name="Page-1">
    <mxGraphModel dx="897" dy="589" grid="1" gridSize="10" guides="1" tooltips="1" connect="1" arrows="1" fold="1" page="1" pageScale="1" pageWidth="827" pageHeight="1169" math="0" shadow="0">
      <root>
        <mxCell id="0" />
        <mxCell id="1" parent="0" />
        <mxCell id="jmDJpXwEOt9g27hDiZsJ-4" value="" style="edgeStyle=orthogonalEdgeStyle;rounded=0;orthogonalLoop=1;jettySize=auto;html=1;" edge="1" parent="1" source="jmDJpXwEOt9g27hDiZsJ-2" target="jmDJpXwEOt9g27hDiZsJ-3">
          <mxGeometry relative="1" as="geometry" />
        </mxCell>
        <mxCell id="jmDJpXwEOt9g27hDiZsJ-2" value="&lt;span&gt;robin-hood发起减免&lt;/span&gt;" style="rounded=1;whiteSpace=wrap;html=1;" vertex="1" parent="1">
          <mxGeometry x="180" y="60" width="120" height="60" as="geometry" />
        </mxCell>
        <mxCell id="jmDJpXwEOt9g27hDiZsJ-6" value="" style="edgeStyle=orthogonalEdgeStyle;rounded=0;orthogonalLoop=1;jettySize=auto;html=1;" edge="1" parent="1" source="jmDJpXwEOt9g27hDiZsJ-3" target="jmDJpXwEOt9g27hDiZsJ-5">
          <mxGeometry relative="1" as="geometry" />
        </mxCell>
        <mxCell id="jmDJpXwEOt9g27hDiZsJ-3" value="flow-center 启动流程实例" style="rounded=1;whiteSpace=wrap;html=1;" vertex="1" parent="1">
          <mxGeometry x="350" y="60" width="120" height="60" as="geometry" />
        </mxCell>
        <mxCell id="jmDJpXwEOt9g27hDiZsJ-8" value="" style="edgeStyle=orthogonalEdgeStyle;rounded=0;orthogonalLoop=1;jettySize=auto;html=1;" edge="1" parent="1" source="jmDJpXwEOt9g27hDiZsJ-5" target="jmDJpXwEOt9g27hDiZsJ-7">
          <mxGeometry relative="1" as="geometry" />
        </mxCell>
        <mxCell id="jmDJpXwEOt9g27hDiZsJ-16" value="" style="edgeStyle=orthogonalEdgeStyle;rounded=0;orthogonalLoop=1;jettySize=auto;html=1;fontFamily=Helvetica;fontSize=12;fontColor=default;" edge="1" parent="1" source="jmDJpXwEOt9g27hDiZsJ-5" target="jmDJpXwEOt9g27hDiZsJ-15">
          <mxGeometry relative="1" as="geometry" />
        </mxCell>
        <mxCell id="jmDJpXwEOt9g27hDiZsJ-5" value="如果进入人工审核节点" style="rounded=1;whiteSpace=wrap;html=1;" vertex="1" parent="1">
          <mxGeometry x="510" y="60" width="120" height="60" as="geometry" />
        </mxCell>
        <mxCell id="jmDJpXwEOt9g27hDiZsJ-10" value="" style="edgeStyle=orthogonalEdgeStyle;rounded=0;orthogonalLoop=1;jettySize=auto;html=1;" edge="1" parent="1" source="jmDJpXwEOt9g27hDiZsJ-7" target="jmDJpXwEOt9g27hDiZsJ-9">
          <mxGeometry relative="1" as="geometry" />
        </mxCell>
        <mxCell id="jmDJpXwEOt9g27hDiZsJ-7" value="调用user-center&amp;nbsp;&lt;br&gt;创建待办接口" style="rounded=1;whiteSpace=wrap;html=1;" vertex="1" parent="1">
          <mxGeometry x="510" y="170" width="120" height="60" as="geometry" />
        </mxCell>
        <mxCell id="jmDJpXwEOt9g27hDiZsJ-12" value="" style="edgeStyle=orthogonalEdgeStyle;rounded=0;orthogonalLoop=1;jettySize=auto;html=1;fontFamily=Helvetica;fontSize=12;fontColor=default;" edge="1" parent="1" source="jmDJpXwEOt9g27hDiZsJ-9" target="jmDJpXwEOt9g27hDiZsJ-11">
          <mxGeometry relative="1" as="geometry" />
        </mxCell>
        <mxCell id="jmDJpXwEOt9g27hDiZsJ-9" value="user-center 创建本地待办，同步调用钉钉" style="rounded=1;whiteSpace=wrap;html=1;" vertex="1" parent="1">
          <mxGeometry x="510" y="260" width="120" height="60" as="geometry" />
        </mxCell>
        <mxCell id="jmDJpXwEOt9g27hDiZsJ-14" value="" style="edgeStyle=orthogonalEdgeStyle;rounded=0;orthogonalLoop=1;jettySize=auto;html=1;fontFamily=Helvetica;fontSize=12;fontColor=default;" edge="1" parent="1" source="jmDJpXwEOt9g27hDiZsJ-11" target="jmDJpXwEOt9g27hDiZsJ-13">
          <mxGeometry relative="1" as="geometry" />
        </mxCell>
        <mxCell id="jmDJpXwEOt9g27hDiZsJ-11" value="创建钉钉审批表单" style="rounded=1;whiteSpace=wrap;html=1;" vertex="1" parent="1">
          <mxGeometry x="510" y="350" width="120" height="60" as="geometry" />
        </mxCell>
        <mxCell id="jmDJpXwEOt9g27hDiZsJ-13" value="发送待办任务" style="rounded=1;whiteSpace=wrap;html=1;fontFamily=Helvetica;fontSize=12;fontColor=default;strokeColor=default;fillColor=default;" vertex="1" parent="1">
          <mxGeometry x="510" y="440" width="120" height="60" as="geometry" />
        </mxCell>
        <mxCell id="jmDJpXwEOt9g27hDiZsJ-15" value="等待人审批" style="rounded=1;whiteSpace=wrap;html=1;fontFamily=Helvetica;fontSize=12;fontColor=default;strokeColor=default;fillColor=default;" vertex="1" parent="1">
          <mxGeometry x="680" y="60" width="120" height="60" as="geometry" />
        </mxCell>
      </root>
    </mxGraphModel>
  </diagram>
</mxfile>
